<?xml version="1.0" encoding="UTF-8"?>
<!-- Created with Inkscape (http://www.inkscape.org/) -->
<svg width="300" height="100" version="1.1" viewBox="0 0 79.374998 26.458334" xmlns="http://www.w3.org/2000/svg" xmlns:cc="http://creativecommons.org/ns#" xmlns:dc="http://purl.org/dc/elements/1.1/" xmlns:rdf="http://www.w3.org/1999/02/22-rdf-syntax-ns#">
 <metadata>
  <rdf:RDF>
   <cc:Work rdf:about="">
    <dc:format>image/svg+xml</dc:format>
    <dc:type rdf:resource="http://purl.org/dc/dcmitype/StillImage"/>
    <dc:title/>
   </cc:Work>
  </rdf:RDF>
 </metadata>
 <g transform="translate(0 -270.54)">
  <g transform="matrix(1.1506 0 0 1.1575 .049084 -42.727)" fill="none" stroke="#010101" stroke-width=".91708">
   <path d="m15.717 290.66h-3.429l-6.6751-11.132v11.132h-3.429v-16.919h3.429l6.6865 11.155v-11.155h3.4176z" style="font-feature-settings:normal;font-variant-caps:normal;font-variant-ligatures:normal;font-variant-numeric:normal"/>
   <path d="m27.322 281.36 3.4633-7.6229h3.749l-5.4635 10.784v6.1355h-3.4861v-6.1355l-5.4635-10.784h3.7605z" style="font-feature-settings:normal;font-variant-caps:normal;font-variant-ligatures:normal;font-variant-numeric:normal"/>
   <path d="m39.478 290.66v-16.919h5.1206q2.1946 0 3.9205 1.011 1.7374 0.99934 2.7089 2.8586 0.97155 1.8476 0.97155 4.2066v0.77855q0 2.3589-0.96012 4.1949-0.94868 1.836-2.686 2.847-1.7374 1.011-3.9205 1.0226zm3.429-14.095v11.295h1.6574q2.0117 0 3.0747-1.3363 1.063-1.3363 1.0858-3.8231v-0.89476q0-2.5797-1.0516-3.9044-1.0516-1.3363-3.0747-1.3363z" style="font-feature-settings:normal;font-variant-caps:normal;font-variant-ligatures:normal;font-variant-numeric:normal"/>
   <path d="m66.295 283.33h-6.5837v4.5319h7.7267v2.8005h-11.156v-16.919h11.133v2.8237h-7.7038v4.0322h6.5837z" style="font-feature-settings:normal;font-variant-caps:normal;font-variant-ligatures:normal;font-variant-numeric:normal"/>
  </g>
 </g>
</svg>
