<?xml version="1.0" encoding="UTF-8"?>
<svg width="450" height="500" version="1.1" viewBox="0 0 119.06249 132.29167" xmlns="http://www.w3.org/2000/svg" xmlns:cc="http://creativecommons.org/ns#" xmlns:dc="http://purl.org/dc/elements/1.1/" xmlns:rdf="http://www.w3.org/1999/02/22-rdf-syntax-ns#">
 <defs>
  <filter id="filter4134" x="-.01575" y="-.0504" width="1.0315" height="1.1008" color-interpolation-filters="sRGB">
   <feGaussianBlur stdDeviation="0.77243454"/>
  </filter>
  <filter id="filter4196" x="-.0135" y="-.108" width="1.027" height="1.216" color-interpolation-filters="sRGB">
   <feGaussianBlur stdDeviation="0.57341445"/>
  </filter>
  <filter id="filter4204" x="-.0135" y="-.108" width="1.027" height="1.216" color-interpolation-filters="sRGB">
   <feGaussianBlur stdDeviation="0.66208673"/>
  </filter>
  <filter id="filter4210" x="-.057836" y="-.015142" width="1.1157" height="1.0303" color-interpolation-filters="sRGB">
   <feGaussianBlur stdDeviation="0.35455775"/>
  </filter>
 </defs>
 <metadata>
  <rdf:RDF>
   <cc:Work rdf:about="">
    <dc:format>image/svg+xml</dc:format>
    <dc:type rdf:resource="http://purl.org/dc/dcmitype/StillImage"/>
    <dc:title/>
   </cc:Work>
  </rdf:RDF>
 </metadata>
 <g transform="matrix(.9695 0 0 .96956 -5.3422 3.5654)" stroke-width="1.0314">
  <g fill="#333" stroke-width=".2729">
   <path d="m97.924 40.618v56.163l14.713 0.03554v-56.199z" filter="url(#filter4210)" opacity=".75"/>
   <path d="m24.396 40.42v56.163l14.713 0.03554v-56.199z" filter="url(#filter4210)" opacity=".75"/>
   <path d="m61.259 40.618v56.163l14.713 0.03554v-56.199z" filter="url(#filter4210)" opacity=".75"/>
   <path d="m123.28 114.92h-110.35c-2.0322 0-3.6783 1.646-3.6783 3.6783v7.3565c0 2.0322 1.646 3.6783 3.6783 3.6783h110.35c2.0322 0 3.6783-1.646 3.6783-3.6783v-7.3565c0-2.0322-1.646-3.6783-3.6783-3.6783z" filter="url(#filter4204)" opacity=".75"/>
   <path d="m116.15 99.361h-95.569c-1.7601 0-3.1856 1.4256-3.1856 3.1856v6.3713c0 1.7601 1.4256 3.1856 3.1856 3.1856h95.569c1.7601 0 3.1856-1.4256 3.1856-3.1856v-6.3713c0-1.7601-1.4256-3.1856-3.1856-3.1856z" filter="url(#filter4196)" opacity=".75"/>
   <path d="m124.85 19.483-53.882-20.706a7.3469 7.3469 0 0 0 -5.1657 0l-53.884 20.706a3.6785 3.6785 0 0 0 -2.3863 3.4438v8.4853c0 2.0322 1.646 3.6783 3.6783 3.6783h110.35c2.0322 0 3.6783-1.646 3.6783-3.6783v-8.4853c0-1.5334-0.95176-2.9058-2.3863-3.4438z" filter="url(#filter4134)" opacity=".75"/>
  </g>
  <g>
   <path d="m114.5 101.32h-95.569c-1.7601 0-3.1856 1.4256-3.1856 3.1856v6.3713c0 1.7601 1.4256 3.1856 3.1856 3.1856h95.569c1.7601 0 3.1856-1.4256 3.1856-3.1856v-6.3713c0-1.7601-1.4256-3.1856-3.1856-3.1856z" fill="#12b3ef" stroke-width=".2729"/>
   <path transform="scale(.26458)" d="m68.535 383.88c-5.1921 1.3374-9.0312 6.0354-9.0312 11.646v24.08c0 6.6522 5.3888 12.041 12.041 12.041h361.21c6.4757 0 11.738-5.1102 12.014-11.518-0.96347 0.24819-1.9685 0.39453-3.0098 0.39453h-361.21c-6.6522 0-12.041-5.3888-12.041-12.041v-24.08c0-0.17688 0.0198-0.34843 0.02734-0.52344z" fill="#0d8ebf" stroke-width="1.0314"/>
   <path d="m121.89 116.9h-110.35c-2.0322 0-3.6783 1.646-3.6783 3.6783v7.3565c0 2.0322 1.646 3.6783 3.6783 3.6783h110.35c2.0322 0 3.6783-1.646 3.6783-3.6783v-7.3565c0-2.0322-1.646-3.6783-3.6783-3.6783z" fill="#12b3ef" stroke-width=".2729"/>
   <path d="m123.73 22.285-53.882-20.706a7.3469 7.3469 0 0 0 -5.1657 0l-53.884 20.706a3.6785 3.6785 0 0 0 -2.3863 3.4438v8.4853c0 2.0322 1.646 3.6783 3.6783 3.6783h110.35c2.0322 0 3.6783-1.646 3.6783-3.6783v-8.4853c0-1.5334-0.95176-2.9058-2.3863-3.4438z" fill="#12b3ef" stroke-width=".2729"/>
   <path transform="scale(.26458)" d="m42.549 83.732-3.8164 1.4668a13.903 13.903 0 0 0 -9.0176 13.016v32.07c0 7.6809 6.2214 13.902 13.902 13.902h417.06c7.2984 0 13.266-5.6204 13.844-12.77-0.37465 0.0303-0.75034 0.0566-1.1328 0.0566h-417.06c-7.6809 0-13.902-6.2214-13.902-13.902v-32.07a13.903 13.903 0 0 1 0.12305 -1.7695z" fill="#0d8ebf" stroke-width="1.0314"/>
  </g>
  <g fill="#f9f9f9" stroke-width=".2729">
   <path d="m22.575 42.005v56.198l14.713 0.0351v-56.234z"/>
   <path d="m59.358 42.005v56.199l14.713 0.03515v-56.234z"/>
   <path d="m96.14 42.005v56.163l14.713 0.03554v-56.199z"/>
  </g>
  <path transform="scale(.26458)" d="m39.514 442.44c-5.6767 1.7494-9.7988 7.0325-9.7988 13.285v27.805c0 7.6809 6.2214 13.9 13.902 13.9h417.06c6.7595 0 12.384-4.818 13.637-11.209-1.2972 0.39997-2.6746 0.61719-4.1035 0.61719h-417.06c-7.6809 0-13.902-6.2214-13.902-13.902v-27.805c0-0.92138 0.0948-1.8203 0.26562-2.6914z" fill="#0d8ebf" stroke-width="1.0314"/>
  <g fill-opacity=".26768">
   <rect x="25.104" y="44.388" width="1.3973" height="51.734" rx=".69863" ry="1.1891" style="paint-order:markers fill stroke"/>
   <rect x="29.349" y="44.265" width="1.3973" height="51.734" rx=".69863" ry="1.1891" style="paint-order:markers fill stroke"/>
   <rect x="33.471" y="44.265" width="1.3973" height="51.734" rx=".69863" ry="1.1891" style="paint-order:markers fill stroke"/>
   <rect x="62.01" y="44.388" width="1.3973" height="51.734" rx=".69863" ry="1.1891" style="paint-order:markers fill stroke"/>
   <rect x="66.271" y="44.388" width="1.3973" height="51.734" rx=".69863" ry="1.1891" style="paint-order:markers fill stroke"/>
   <rect x="70.334" y="44.388" width="1.3973" height="51.734" rx=".69863" ry="1.1891" style="paint-order:markers fill stroke"/>
   <rect x="99.269" y="44.388" width="1.3973" height="51.734" rx=".69863" ry="1.1891" style="paint-order:markers fill stroke"/>
   <rect x="103.23" y="44.388" width="1.3973" height="51.734" rx=".69863" ry="1.1891" style="paint-order:markers fill stroke"/>
   <rect x="107" y="44.388" width="1.3973" height="51.734" rx=".69863" ry="1.1891" style="paint-order:markers fill stroke"/>
  </g>
 </g>
</svg>
