<?xml version="1.0" encoding="UTF-8" standalone="no"?>
<svg
   xmlns:dc="http://purl.org/dc/elements/1.1/"
   xmlns:cc="http://creativecommons.org/ns#"
   xmlns:rdf="http://www.w3.org/1999/02/22-rdf-syntax-ns#"
   xmlns:svg="http://www.w3.org/2000/svg"
   xmlns="http://www.w3.org/2000/svg"
   id="svg1803"
   version="1.1"
   viewBox="0 0 132.29166 132.29167"
   height="500"
   width="500">
  <defs
     id="defs1797" />
  <metadata
     id="metadata1800">
    <rdf:RDF>
      <cc:Work
         rdf:about="">
        <dc:format>image/svg+xml</dc:format>
        <dc:type
           rdf:resource="http://purl.org/dc/dcmitype/StillImage" />
        <dc:title></dc:title>
      </cc:Work>
    </rdf:RDF>
  </metadata>
  <g
     transform="translate(0,-164.70831)"
     id="layer1">
    <g
       style="stroke-width:1.15090668"
       transform="matrix(0.86888015,0,0,0.86888015,-25.242429,126.54046)"
       id="g2576">
      <path
         style="fill:#12b3ef;fill-opacity:1;stroke-width:0.30451074"
         d="m 170.82029,69.871547 -62.01304,-23.83103 a 8.4555542,8.4555542 0 0 0 -5.94519,0 l -62.015692,23.83103 a 4.2335979,4.2335979 0 0 0 -2.74637,3.96345 v 9.76577 c 0,2.338919 1.89441,4.233339 4.23333,4.233339 H 169.33333 c 2.33892,0 4.23334,-1.89442 4.23334,-4.233339 v -9.76577 c 0,-1.76477 -1.09538,-3.34433 -2.74638,-3.96345 z"
         id="path2005" />
      <path
         style="fill:#f9f9f9;fill-opacity:1;stroke-width:0.30451074"
         d="m 55.033333,92.271537 v 64.679223 l 16.933333,0.0404 V 92.271487 Z"
         id="path2021" />
      <path
         style="fill:#f9f9f9;fill-opacity:1;stroke-width:0.30451074"
         d="M 97.366665,92.271552 V 156.95086 L 114.3,156.99131 V 92.27154 Z"
         id="path2019" />
      <path
         style="fill:#f9f9f9;fill-opacity:1;stroke-width:0.30451074"
         d="m 139.7,92.271542 v 64.638238 l 16.93333,0.0409 V 92.27143 Z"
         id="path2003" />
      <path
         style="fill:#12b3ef;fill-opacity:1;stroke-width:0.30451074"
         d="M 169.33333,178.46665 H 42.333328 c -2.33892,0 -4.23333,1.89442 -4.23333,4.23334 v 8.46666 c 0,2.33892 1.89441,4.23334 4.23333,4.23334 H 169.33333 c 2.33892,0 4.23334,-1.89442 4.23334,-4.23334 v -8.46666 c 0,-2.33892 -1.89442,-4.23334 -4.23334,-4.23334 z"
         id="path1990" />
      <path
         id="path2015"
         d="M 160.82887,160.70177 H 50.837787 c -2.025672,0 -3.666366,1.6407 -3.666366,3.66637 v 7.33274 c 0,2.02567 1.640694,3.66637 3.666366,3.66637 H 160.82887 c 2.02568,0 3.66638,-1.6407 3.66638,-3.66637 v -7.33274 c 0,-2.02567 -1.6407,-3.66637 -3.66638,-3.66637 z"
         style="fill:#12b3ef;fill-opacity:1;stroke-width:0.30451074" />
    </g>
  </g>
</svg>
