<?xml version="1.0" encoding="UTF-8"?>
<!-- Created with Inkscape (http://www.inkscape.org/) -->
<svg width="500" height="360" version="1.1" viewBox="0 0 132.29166 95.250002" xmlns="http://www.w3.org/2000/svg" xmlns:cc="http://creativecommons.org/ns#" xmlns:dc="http://purl.org/dc/elements/1.1/" xmlns:rdf="http://www.w3.org/1999/02/22-rdf-syntax-ns#">
 <metadata>
  <rdf:RDF>
   <cc:Work rdf:about="">
    <dc:format>image/svg+xml</dc:format>
    <dc:type rdf:resource="http://purl.org/dc/dcmitype/StillImage"/>
    <dc:title/>
   </cc:Work>
  </rdf:RDF>
 </metadata>
 <g transform="translate(0 -201.75)">
  <g fill="#e6e6e6">
   <path d="m122.07 206.37c-1.9686-0.0252-3.9886 0.75253-5.5069 2.2885l-2.4996 2.5319-2.499-2.5319c-2.6849-2.7164-6.9693-3.0641-9.7471-0.74491-3.656 3.0568-3.1276 8.0501-0.52122 10.688l12.524 12.674c0.17137 0.17024 0.31435 0.17024 0.48572 0l12.525-12.674c2.5849-2.6171 3.1277-7.6384-0.52121-10.695-1.209-1.0116-2.709-1.5172-4.2402-1.5368z" style="paint-order:markers fill stroke"/>
   <path d="m3.1516 219.2 5.041-0.18899v69.422h122.75l0.18899 4.9864h-127.98z"/>
   <path d="m102.62 226.07c-16.724 15.002-30.823 27.397-47.546 42.399-3.1767-3.4898-6.3535-6.9795-9.5302-10.469 0.02012-0.0163 0.04024-0.0328 0.06038-0.0493-1.2233-1.3055-2.4468-2.6109-3.6701-3.9164-12.063 9.8377-20.694 17.67-32.757 27.508l-0.020118 6.1322c10.742-8.7606 21.484-17.521 32.226-26.282 4.4592 4.8987 8.9186 9.7973 13.378 14.696l3.9899-3.5796c-0.02388-0.0262-0.0478-0.0523-0.07167-0.0785 16.791-15.062 30.957-27.517 47.747-42.579z"/>
  </g>
  <path d="m105.93 203.01c-2.2751 0.0308-4.5115 0.78034-6.3172 2.2914-5.3698 4.4895-4.5843 11.809-0.75686 15.688l12.525 12.674c0.71407 0.72343 1.6709 1.1275 2.6848 1.1275 1.0211 0 1.9708-0.39703 2.6849-1.1204l12.525-12.674c3.8203-3.8795 4.6201-11.199-0.75687-15.695-4.1273-3.4469-10.504-2.9291-14.453 1.0639-2.2212-2.2461-5.2105-3.3948-8.1357-3.3553zm16.142 3.3579c1.5312 0.0196 3.0313 0.52477 4.2403 1.5363 3.6489 3.0568 3.1063 8.0783 0.52138 10.695l-12.525 12.674c-0.17136 0.17023-0.31429 0.17023-0.48566 0l-12.525-12.674c-2.6064-2.6384-3.1349-7.6315 0.5211-10.688 2.7778-2.3192 7.0622-1.9717 9.7471 0.74469l2.4992 2.5321 2.4992-2.5321c1.5183-1.5359 3.5381-2.3133 5.5068-2.288z" fill="#ccc"/>
 </g>
</svg>
