<?xml version="1.0" encoding="UTF-8"?>
<!-- Created with Inkscape (http://www.inkscape.org/) -->
<svg width="500" height="500" version="1.1" viewBox="0 0 132.29166 132.29167" xmlns="http://www.w3.org/2000/svg" xmlns:cc="http://creativecommons.org/ns#" xmlns:dc="http://purl.org/dc/elements/1.1/" xmlns:rdf="http://www.w3.org/1999/02/22-rdf-syntax-ns#">
 <metadata>
  <rdf:RDF>
   <cc:Work rdf:about="">
    <dc:format>image/svg+xml</dc:format>
    <dc:type rdf:resource="http://purl.org/dc/dcmitype/StillImage"/>
    <dc:title/>
   </cc:Work>
  </rdf:RDF>
 </metadata>
 <g transform="translate(0 -164.71)">
  <path d="m95.038 186.76c-7.0476-0.0902-14.279 2.694-19.714 8.1925l-8.9484 9.0641-8.9463-9.0641c-9.6117-9.7244-24.95-10.969-34.894-2.6667-13.088 10.943-11.196 28.819-1.8659 38.264l44.837 45.37c0.61349 0.60945 1.1253 0.60945 1.7388 0l44.839-45.37c9.2539-9.369 11.197-27.345-1.8659-38.288-4.3282-3.6213-9.6981-5.4316-15.18-5.5017z" fill="#e9afc6" style="paint-order:markers fill stroke"/>
  <path d="m37.251 174.74c-8.1448 0.11026-16.151 2.7936-22.615 8.2032-19.224 16.072-16.411 42.274-2.7095 56.162l44.838 45.373c2.5563 2.5898 5.9816 4.0363 9.6116 4.0363 3.6556 0 7.0552-1.4213 9.6116-4.0111l44.838-45.373c13.676-13.888 16.54-40.09-2.7095-56.188-14.775-12.34-37.604-10.486-51.74 3.8085-7.9518-8.0408-18.653-12.153-29.125-12.012zm57.786 12.021c5.4814 0.0702 10.852 1.8786 15.18 5.4999 13.063 10.943 11.12 28.92 1.8665 38.289l-44.838 45.372c-0.61346 0.60941-1.1251 0.60941-1.7386 0l-44.837-45.372c-9.3306-9.4451-11.223-27.32 1.8655-38.263 9.9442-8.3026 25.282-7.0584 34.894 2.6659l8.9471 9.0648 8.9471-9.0648c5.4354-5.4985 12.666-8.2814 19.714-8.191z" fill="#d35f8d"/>
 </g>
</svg>
