<?xml version="1.0" encoding="UTF-8"?>
<!-- Created with Inkscape (http://www.inkscape.org/) -->
<svg width="1200" height="600" version="1.1" viewBox="0 0 317.5 158.75" xmlns="http://www.w3.org/2000/svg" xmlns:cc="http://creativecommons.org/ns#" xmlns:dc="http://purl.org/dc/elements/1.1/" xmlns:rdf="http://www.w3.org/1999/02/22-rdf-syntax-ns#" xmlns:xlink="http://www.w3.org/1999/xlink">
 <defs>
  <linearGradient id="linearGradient2954" x1="157.15" x2="157.69" y1="186.62" y2="291.39" gradientTransform="matrix(1 0 0 1.2173 -4.0849e-6 -64.605)" gradientUnits="userSpaceOnUse">
   <stop stop-color="#210038" offset="0"/>
   <stop stop-color="#4d005c" offset="1"/>
  </linearGradient>
  <radialGradient id="radialGradient887" cx="158.82" cy="338.06" r="158.75" gradientTransform="matrix(.86595 -.88295 .91293 .89535 -287.03 111.11)" gradientUnits="userSpaceOnUse">
   <stop stop-color="#ff8508" offset="0"/>
   <stop stop-color="#f5ff06" offset=".1946"/>
   <stop stop-color="#f6ffa6" offset=".41925"/>
   <stop stop-color="#23beff" offset=".79234"/>
   <stop stop-color="#8263ff" offset="1"/>
  </radialGradient>
 </defs>
 <metadata>
  <rdf:RDF>
   <cc:Work rdf:about="">
    <dc:format>image/svg+xml</dc:format>
    <dc:type rdf:resource="http://purl.org/dc/dcmitype/StillImage"/>
    <dc:title/>
   </cc:Work>
  </rdf:RDF>
 </metadata>
 <g transform="translate(0 -138.25)">
  <path d="m0.26727 138.31h317.5v158.75h-317.5z" fill="url(#radialGradient887)" style="paint-order:markers fill stroke"/>
  <path d="m0.52494 267.29h10.656l-0.13364 10.96 2.5848 0.0602 0.0458-20.413 8.4301-0.16268 0.15415 7.4655 0.15416 7.4655 4.4572 0.21976 0.23219-26.664 12.622-0.10567v18.812l3.1091 0.0667s0.92316-6.9666 1.1765-17.677c0.25656-10.848 0.6134-18.37 1.3445-24.618 0.56966-4.8681 0.4216-7.5822 1.5753-11.873l3.0376-9.8283 2.2464 10.065c0.93872 4.2058 1.5685 8.7181 1.8949 11.852 0.75641 9.0639 1.1576 16.703 1.1683 24.278 0 10.144 0.0419 18.444 0.0419 18.444l3.2096-0.15226 0.21963-11.985s0.0329-9.8376 0.35729-16.987l6.7193-0.15546-0.0227 7.1806 0.0313 7.7908h2.2718l0.58914-15.033 6.3962-0.21163v7.7545s-0.10114 8.0915 0.90487 9.3161c0.80951 0.98545 1.0939 4.6495 1.0939 5.6115 0 0.96209 1.8498 0.0211 1.8498 0.0211s0.0458-17.096-0.0792-32.652l7.3774-0.16269 0.3149 10.86 0.0924 11.289 2.437 0.059 0.25484-25.333 3.4744-0.14076 2.0716 11.557 5.1135 2.1233 0.60647 24.561 2.6058 0.026 0.33791-25.933h5.2259l0.1635 24.229 1.7627-0.2462s0.49086-21.038 0.62877-32.57c0.23406-19.572 0.6565-27.593 0.6565-27.593l1.8313 0.0921 0.35137-10.249s1.2234 0.85603 1.7653-2.8687c0.36935-2.5386 1.1711-5.3476 1.7311-7.1268 0.34757-1.1044 0.60197-6.855 0.60197-6.855s-0.0604 5.5285 0.38318 6.9313c0.56789 1.7958 1.7057 4.7833 2.1138 6.8448 0.8368 3.2848 2.5844 3.0632 2.5844 3.0632l0.14263 10.37s1.6186-0.1456 1.8266-0.0435c0 0 0.79855 10.676 0.89641 27.417 0.073 12.483 0.19201 34.219 0.19201 34.219l2.5604-0.19765 0.17156-22.939 6.6192-0.17669 2.3204 2.1787 4.7201 10.535 0.61627 5.2921 2.5972 0.10713-0.16677-13.478 6.8667 0.18243 0.59078 28.329c0.40477 9e-4 1.4041-0.11163 1.4041-0.11163l-0.021-15.08 2.0503 7e-3 0.5202 13.753 1.7169-0.16946s-0.11066-9.271 0.1624-14.11l2.3076-4.7695s-0.32849-5.7505 0.18176-5.7497l9.7831 0.0153 0.16208 13.161 3.2098 0.0591-0.0499-9.9524s3.7398 7.8074 4.3739 9.0019c0.72607 1.3677 0.96621 0.74316 0.96621 0.74316l-0.10671-16.331 10.648 0.17153 0.40401 14.521 0.13675 12.243 1.3204 0.0413 0.43684-33.508 3.1888 0.21072 0.45612 31.742 3.2257 0.0128 2.8732 2.2605 0.0945-47.523 8.5589 0.1025 0.48944 25.527 5.604 0.19337-0.26131-41.649c0.0945 0.18619 10.197 0.0802 10.197 0.0802l-9e-3 27.142 3.0719-1.4e-4 -0.14424 37.262 2.0558-3.8415 1.8531-18.276c0.49829 0.37489 0.87005-14.177 0.87005-34.056l-0.4009-39.265 1.2723-0.084 0.0306-4.7354 2.7393-0.11748 0.57996-8.8072 0.47438-19.035 0.32857 18.991 0.66546 8.8173 2.6087 0.0751 0.2416 4.9393 0.8714 0.11918 0.4009 40.824c0.31018 31.585 0.80366 36.269 0.80366 36.269l2.14-0.2084v-38.764c2.3413-2.1739 4.549-4.5105 6.4893-6.5217 1.9107 2.2284 4.3559 4.4568 6.2666 6.6851l-0.13363 47.85s1.03-0.14066 1.6494-0.14066c0.55145-19.014 0.44669-32.578 0.44669-53.071l8.0731 0.0838 0.4719 62.07 1.9353-0.0129 0.11538-28.382 8.2891-0.0768-0.0332 11.932 6.5516-0.0378 0.66384 20.908 6.5658 6.2692s3.1422-4.5715 3.8765-5.4066c1.0569-1.2019 0.71041 0.24886 0.36786-15.287-0.238-10.794-0.24123-18.412-1.5662-20.219-0.25592-0.50538 0.78662-2.8568 1.5001-4.8277 1.247-3.4445 1.3003-3.2773 1.3769 4.3136 0.0792 7.8495 0.0951 7.8935 2.6404 7.3012 2.4123-0.56135 2.5223-0.38317 1.8985 3.074-0.51287 2.8425-0.19723 4.2359 1.4 6.1803 1.1342 1.3807 2.4571 2.2132 2.9398 1.85 1.3738-1.0336 2.3441 1.8198 1.124 3.3051-0.6006 0.73111-1.092 3.3452-1.092 5.809 0 2.8204-0.5681 4.8667-1.5338 5.5246-1.391 0.9476-1.391 1.1893 0 2.5946 0.84362 0.85229 1.5338 2.2243 1.5338 3.0488 0 0.82457 0.67301 2.1792 1.4956 3.0102 0.82256 0.83102 1.0134 2.0979 1.0134 2.0979-0.2652 0.32285 4.986 0.62484 6.0476 2.2679l-0.39561 12.245-317.51 0.19162z" fill="url(#linearGradient2954)"/>
 </g>
</svg>
