<?xml version="1.0" encoding="UTF-8" standalone="no"?>
<!-- Created with Inkscape (http://www.inkscape.org/) -->

<svg
   xmlns:dc="http://purl.org/dc/elements/1.1/"
   xmlns:cc="http://creativecommons.org/ns#"
   xmlns:rdf="http://www.w3.org/1999/02/22-rdf-syntax-ns#"
   xmlns:svg="http://www.w3.org/2000/svg"
   xmlns="http://www.w3.org/2000/svg"
   xmlns:xlink="http://www.w3.org/1999/xlink"
   xmlns:sodipodi="http://sodipodi.sourceforge.net/DTD/sodipodi-0.dtd"
   xmlns:inkscape="http://www.inkscape.org/namespaces/inkscape"
   width="1200"
   height="450"
   viewBox="0 0 317.5 119.0625"
   version="1.1"
   id="svg2330"
   inkscape:version="0.92.2 5c3e80d, 2017-08-06"
   sodipodi:docname="nyc_skyline_purple.svg">
  <defs
     id="defs2324">
    <linearGradient
       inkscape:collect="always"
       id="linearGradient2952">
      <stop
         style="stop-color:#210038;stop-opacity:1"
         offset="0"
         id="stop2948" />
      <stop
         style="stop-color:#4d005c;stop-opacity:1"
         offset="1"
         id="stop2950" />
    </linearGradient>
    <linearGradient
       inkscape:collect="always"
       xlink:href="#linearGradient2952"
       id="linearGradient2954"
       x1="157.15448"
       y1="186.61768"
       x2="157.68903"
       y2="291.38733"
       gradientUnits="userSpaceOnUse" />
  </defs>
  <sodipodi:namedview
     id="base"
     pagecolor="#ffffff"
     bordercolor="#666666"
     borderopacity="1.0"
     inkscape:pageopacity="0.0"
     inkscape:pageshadow="2"
     inkscape:zoom="1.979899"
     inkscape:cx="494.49809"
     inkscape:cy="272.92751"
     inkscape:document-units="px"
     inkscape:current-layer="layer1"
     showgrid="false"
     units="px"
     inkscape:snap-nodes="false"
     inkscape:window-width="1440"
     inkscape:window-height="802"
     inkscape:window-x="0"
     inkscape:window-y="0"
     inkscape:window-maximized="1" />
  <metadata
     id="metadata2327">
    <rdf:RDF>
      <cc:Work
         rdf:about="">
        <dc:format>image/svg+xml</dc:format>
        <dc:type
           rdf:resource="http://purl.org/dc/dcmitype/StillImage" />
        <dc:title></dc:title>
      </cc:Work>
    </rdf:RDF>
  </metadata>
  <g
     inkscape:label="Layer 1"
     inkscape:groupmode="layer"
     id="layer1"
     transform="translate(0,-177.93749)">
    <path
       style="fill:url(#linearGradient2954);fill-opacity:1;stroke-width:0.99999994"
       d="m 3.464904,282.94456 v -10.30284 h 3.9248939 3.9248931 v 3.92489 c 0,2.15868 0.441551,3.92489 0.981223,3.92489 0.57238,0 0.981224,-3.27074 0.981224,-7.84978 v -7.84979 h 4.415505 4.415505 l 0.154154,6.13264 0.154153,6.13265 0.581765,-4.8976 c 0.427441,-3.59844 1.03726,-4.98402 2.298903,-5.22336 1.380005,-0.26182 1.717141,0.37398 1.717141,3.23836 0,2.12623 0.395863,3.31948 0.981223,2.95771 0.539674,-0.33353 0.981223,-4.55434 0.981223,-9.37954 v -8.77309 h 6.377952 6.377952 v 7.30125 c 0,4.0157 0.419296,7.56042 0.931768,7.87714 0.565363,0.34941 1.095937,-5.12619 1.349254,-13.92453 0.456465,-15.85414 1.608349,-24.76213 4.242759,-32.81096 l 1.714665,-5.23878 1.301488,6.37796 c 0.715816,3.50788 1.568531,8.48452 1.894921,11.05921 0.326392,2.57471 0.977926,4.91891 1.447856,5.20934 0.469929,0.29043 0.854417,7.34604 0.854417,15.67911 0,8.33308 0.35904,15.15105 0.79787,15.15105 0.438828,0 0.905109,-2.09737 1.036178,-4.6608 0.131069,-2.56345 0.65513,-5.08029 1.164576,-5.59298 0.509448,-0.51269 0.926268,-1.72695 0.926268,-2.69836 0,-0.97142 0.441551,-1.76621 0.981224,-1.76621 0.539673,0 0.446684,-4.77248 0.446684,-4.77248 l 0.270975,-4.90613 c 0,0 5.282126,-0.26441 5.301883,-0.1277 0.118383,0.81911 -0.589645,5.99309 -0.589645,5.99309 l 0.03132,6.39991 h 2.271791 l 0.03643,-6.02097 0.552708,-6.32845 6.39621,-0.17384 v 6.37003 c 0,4.35396 0.465827,6.83586 1.471835,7.84186 0.80951,0.80951 1.471834,2.11848 1.471834,2.90878 0,0.79032 0.662328,1.69111 1.471836,2.00175 1.266505,0.486 1.471835,-1.41578 1.471835,-13.63215 l -0.133635,-13.6624 5.393024,-0.13364 0.314902,8.92072 c 0,0 -0.314598,7.91883 0.09239,9.27314 0.55184,1.83632 1.870055,0.0485 1.870055,0.0485 0.573463,1.75205 1.294271,-0.65416 1.294271,-10.79346 0,-10.1393 0.118936,-10.79346 1.962448,-10.79346 1.724574,0 1.962446,5.39673 1.962446,5.39673 l 1.054101,5.79763 5.207994,0.70479 c 0,0 0.60647,4.31857 0.60647,10.25448 0,6.80761 0.35919,9.30333 1.47184,10.22675 1.29394,1.07387 1.47184,-0.15688 1.47184,-10.1827 V 246.1487 h 2.94367 2.94367 l 0.069,10.54815 c 0.0445,6.80698 0.36805,9.85213 0.91225,8.58571 0.46382,-1.07935 0.87433,-11.80113 0.91225,-23.82619 0.0528,-16.74709 0.4017,-22.66005 1.49073,-25.26648 0.78197,-1.87153 1.8638,-3.40277 2.4041,-3.40277 0.54028,0 1.11474,-2.53892 1.27659,-5.64205 0.22063,-4.23019 0.66258,-5.64202 1.76611,-5.64202 1.04663,0 1.61356,1.41732 1.96245,4.90611 0.26983,2.69837 1.27732,6.06427 2.23889,7.47979 2.64142,3.88846 3.61633,12.2027 3.84023,32.75037 0.11173,10.25379 0.35363,15.22122 0.53757,11.03876 l 0.33441,-7.60448 h 2.90239 c 2.24825,0 2.9024,-0.44231 2.9024,-1.96246 0,-1.42617 0.65415,-1.96244 2.39383,-1.96244 2.05792,0 2.43656,0.51635 2.69835,3.67959 0.24464,2.95566 0.73891,3.74128 2.5123,3.99315 1.91012,0.27127 2.20776,0.89959 2.20776,4.6608 0,3.13683 -0.40697,4.34726 0.61627,4.34726 0.9956,0 2.78621,-0.3845 2.78621,-0.3845 l 1.62861,-8.80349 5.07133,-0.13363 0.10021,9.07463 c 0.055,4.99105 0.43138,9.07538 0.83612,9.07631 0.40477,7.4e-4 0.73592,-1.54374 0.73592,-3.4326 0,-1.88884 0.44156,-3.43427 0.98124,-3.43427 0.53966,0 0.98122,1.98698 0.98122,4.4155 0,2.42853 0.41449,4.41551 0.9211,4.41551 0.5066,0 1.21906,-1.98698 1.58324,-4.41551 0.44518,-2.9687 1.81471,-3.48073 2.12894,-4.4155 l 0.17161,-2.49819 0.10258,-3.85119 c 0,0 5.15107,-0.33667 5.66079,-0.31326 l 4.63815,0.21302 c 0,0 3.43547,0.0978 3.43613,3.26064 4.9e-4,2.1802 0.4663,3.18898 1.47254,3.18898 0.8095,0 1.4786,-0.55193 1.48686,-1.22653 0.01,-0.81769 0.33207,-0.73592 0.96619,0.2453 0.72607,1.12352 0.95473,0.74615 0.96621,-1.59449 0.008,-1.68647 0.29098,-4.44615 0.62828,-6.13264 0.58622,-2.93109 0.82422,-3.06632 5.39673,-3.06632 h 4.78346 l 0.13674,10.05753 0.13675,10.05755 0.94243,-8.09247 c 0.51835,-4.45084 1.31024,-7.86515 1.75976,-7.58732 0.44954,0.27783 1.16163,4.1402 1.58243,8.58308 0.4208,4.44286 0.9237,7.07695 1.11758,5.85351 l 0.35251,-2.22442 2.87323,2.04593 2.87325,2.04593 v -3.88673 c 0,-2.5497 0.50631,-4.08102 1.47183,-4.45152 1.00867,-0.38706 1.47185,-1.964 1.47185,-5.0111 0,-4.43334 0.0101,-4.4463 3.45881,-4.4463 3.07193,0 3.52587,0.33527 4.05829,2.99745 0.41639,2.08189 1.03284,2.83117 2.01817,2.45305 0.78027,-0.2994 2.48644,-0.54439 3.79149,-0.54439 2.24594,0 2.3728,-0.31475 2.3728,-5.88733 0,-5.2332 0.21805,-5.88735 1.96246,-5.88735 1.52635,0 1.96244,0.65415 1.96244,2.94368 0,1.61901 0.44156,2.94367 0.98123,2.94367 0.59185,0 0.98122,4.08844 0.98122,10.30284 0,6.21441 0.38938,10.30284 0.98123,10.30284 0.53967,0 0.98121,-0.12197 0.98121,-0.27104 0,-0.14908 0.4674,-3.99853 1.03865,-8.55436 1.01981,-8.13303 2.2528,-11.30637 3.97865,-10.23974 0.49829,0.30796 0.87005,-11.64567 0.87005,-27.97566 v -28.5134 l 2.20775,-0.069 c 2.04056,-0.0637 2.06314,-0.12556 0.29785,-0.81637 -1.83451,-0.71792 -1.82661,-0.76919 0.20023,-1.29923 1.87563,-0.49048 2.148,-1.35386 2.45085,-7.76932 l 0.34074,-7.21753 0.19495,7.04776 c 0.17575,6.35276 0.41268,7.11971 2.40272,7.7776 l 2.20775,0.72985 -2.45305,0.71028 c -2.33585,0.67637 -2.34757,0.71498 -0.24531,0.80811 l 2.20774,0.0979 v 29.92731 c 0,25.9479 0.19571,29.9273 1.47183,29.9273 1.24842,0 1.47186,-2.44011 1.47186,-16.07372 V 227.7384 l 3.51194,-2.67869 3.51194,-2.67868 2.86602,2.7458 2.866,2.7458 v 18.45966 c 0,11.65231 0.36184,18.45968 0.98122,18.45968 0.62307,0 0.98123,-7.54153 0.98123,-20.66211 v -20.66211 l 4.17019,0.30173 4.1702,0.30172 0.071,23.05874 c 0.0833,27.06325 0.12032,27.77503 1.40079,26.98364 0.54341,-0.33584 0.98123,-4.79091 0.98123,-9.98457 0,-9.24665 0.0309,-9.36986 2.20775,-8.78651 1.21426,0.32542 2.53891,0.59769 2.94367,0.60506 0.40476,0.007 0.7506,3.87697 0.76856,8.5991 0.0263,6.92771 0.38831,9.01204 1.87442,10.79345 1.01298,1.21427 2.57454,2.20775 3.47017,2.20775 2.42045,0 10.07555,5.57682 11.8402,8.62571 1.14416,1.97684 1.43643,2.14783 1.14003,0.66694 -0.21922,-1.09527 0.20223,-2.55265 0.93654,-3.2386 1.05692,-0.98732 1.24495,-4.60643 0.9024,-17.36883 -0.238,-8.86689 -0.64213,-16.46129 -0.89805,-16.87647 -0.25592,-0.41515 0.11845,-2.07948 0.83192,-3.69849 1.24696,-2.82956 1.30034,-2.69218 1.37694,3.54351 0.0792,6.44808 0.0951,6.48423 2.64035,5.99768 2.41227,-0.46113 2.5223,-0.31477 1.89854,2.52522 -0.51287,2.33502 -0.19723,3.47961 1.40002,5.07686 1.13418,1.13418 2.45709,1.81808 2.93979,1.51974 1.37375,-0.84903 2.34411,1.4949 1.12399,2.71502 -0.6006,0.60058 -1.09199,2.74792 -1.09199,4.77187 0,2.31688 -0.5681,3.99782 -1.53383,4.53826 -1.39096,0.77842 -1.39096,0.97696 0,2.13136 0.84362,0.70013 1.53383,1.82716 1.53383,2.5045 0,0.67736 0.67301,1.79009 1.49556,2.47275 0.82256,0.68266 1.27856,1.45818 1.01336,1.72337 -0.2652,0.26521 0.38645,1.58649 1.44812,2.93618 4.31187,5.48165 14.77771,5.133 -154.08421,5.133 H 3.464904 Z"
       id="path2946"
       inkscape:connector-curvature="0"
       sodipodi:nodetypes="ccccssscccccscscscccscsccsssssscssccsccccccscscscccsssscccscscccccsssssccsccsssccsscccccsssscsccsccscccsscccccsccccscssccssssssssccsccccccccccccssscccccssscccccsccccscccscccscsccsccscccscc" />
  </g>
</svg>
